<svg xmlns="http://www.w3.org/2000/svg" width="800" height="500" viewBox="0 0 800 500" fill="none">
  <!-- 应用窗口背景 -->
  <rect width="800" height="500" rx="10" fill="#F8FAFC" />
  
  <!-- 应用窗口内容 -->
  <rect x="50" y="50" width="700" height="400" rx="8" fill="white" stroke="#E2E8F0" stroke-width="2" />
  
  <!-- 标题和图标 -->
  <circle cx="100" cy="100" r="20" fill="#E0E7FF" />
  <rect x="130" y="90" width="150" height="10" rx="5" fill="#1E293B" />
  <rect x="130" y="110" width="100" height="6" rx="3" fill="#94A3B8" />
  
  <!-- 输入框1 - URL -->
  <rect x="100" y="160" width="600" height="50" rx="6" fill="#F1F5F9" stroke="#CBD5E1" stroke-width="1" />
  <rect x="110" y="175" width="300" height="8" rx="4" fill="#94A3B8" />
  <rect x="110" y="190" width="200" height="6" rx="3" fill="#CBD5E1" />
  
  <!-- 输入框2 - 文本 -->
  <rect x="100" y="230" width="600" height="80" rx="6" fill="#F1F5F9" stroke="#CBD5E1" stroke-width="1" />
  <rect x="110" y="245" width="400" height="8" rx="4" fill="#4F46E5" />
  <rect x="110" y="260" width="350" height="8" rx="4" fill="#4F46E5" />
  <rect x="110" y="275" width="250" height="8" rx="4" fill="#4F46E5" />
  
  <!-- 按钮 -->
  <rect x="100" y="330" width="600" height="50" rx="6" fill="#4F46E5" />
  <rect x="350" y="350" width="100" height="10" rx="5" fill="white" />
  
  <!-- 结果框 -->
  <rect x="100" y="400" width="600" height="40" rx="6" fill="#F1F5F9" stroke="#CBD5E1" stroke-width="1" />
  <rect x="110" y="415" width="500" height="8" rx="4" fill="#94A3B8" />
</svg> 